<svg width="14" height="11" viewBox="0 0 14 11" fill="none" xmlns="http://www.w3.org/2000/svg">
<path d="M5.18747 5.5C5.18747 5.96413 5.37184 6.40925 5.70003 6.73744C6.02822 7.06563 6.47334 7.25 6.93747 7.25C7.4016 7.25 7.84672 7.06563 8.17491 6.73744C8.50309 6.40925 8.68747 5.96413 8.68747 5.5C8.68747 5.03587 8.50309 4.59075 8.17491 4.26256C7.84672 3.93437 7.4016 3.75 6.93747 3.75C6.47334 3.75 6.02822 3.93437 5.70003 4.26256C5.37184 4.59075 5.18747 5.03587 5.18747 5.5ZM13.7218 5.09688C12.2406 1.97656 10.0015 0.40625 6.99997 0.40625C3.99684 0.40625 1.75934 1.97656 0.278093 5.09844C0.21868 5.22425 0.187866 5.36165 0.187866 5.50078C0.187866 5.63991 0.21868 5.77732 0.278093 5.90312C1.75934 9.02344 3.99841 10.5938 6.99997 10.5938C10.0031 10.5938 12.2406 9.02344 13.7218 5.90156C13.8422 5.64844 13.8422 5.35469 13.7218 5.09688ZM6.93747 8.25C5.41872 8.25 4.18747 7.01875 4.18747 5.5C4.18747 3.98125 5.41872 2.75 6.93747 2.75C8.45622 2.75 9.68747 3.98125 9.68747 5.5C9.68747 7.01875 8.45622 8.25 6.93747 8.25Z" fill="white"/>
</svg>
