<svg width="16" height="16" viewBox="0 0 16 16" fill="none" xmlns="http://www.w3.org/2000/svg">
<path fill-rule="evenodd" clip-rule="evenodd" d="M8.0007 15.0005C8.73404 15.0005 9.33404 14.4005 9.33404 13.6672H6.66737C6.66737 14.4005 7.2607 15.0005 8.0007 15.0005ZM12.0005 11V7.66667C12.0005 5.62 10.9072 3.90667 9.00051 3.45333V3C9.00051 2.44667 8.55384 2 8.00051 2C7.44718 2 7.00051 2.44667 7.00051 3V3.45333C5.08718 3.90667 4.00051 5.61333 4.00051 7.66667V11L2.66718 12.3333V13H13.3338V12.3333L12.0005 11Z" fill="#40A3F8"/>
<path fill-rule="evenodd" clip-rule="evenodd" d="M12.6667 7.99975C14.1394 7.99975 15.3333 6.80584 15.3333 5.33308C15.3333 3.86032 14.1394 2.66641 12.6667 2.66641C11.1939 2.66641 10 3.86032 10 5.33308C10 6.80584 11.1939 7.99975 12.6667 7.99975Z" fill="#FF8080" stroke="white" stroke-width="1.2"/>
</svg>
