<svg width="24" height="26" viewBox="0 0 24 26" fill="none" xmlns="http://www.w3.org/2000/svg">
<path fill-rule="evenodd" clip-rule="evenodd" d="M11.5171 0.00439453C15.7549 0.00439453 19.2935 3.2359 19.6772 7.45634L20.2648 13.9204C20.3164 14.4878 20.6579 14.9882 21.1676 15.243L21.1722 15.2453C22.3133 15.8159 23.0341 16.9822 23.0341 18.258V18.7607C23.0341 20.3963 21.7082 21.7223 20.0726 21.7223H15.1367V22.38C15.1367 24.3791 13.5161 25.9997 11.517 25.9997C9.51794 25.9997 7.89737 24.3791 7.89737 22.38V21.7223H2.96153C1.32592 21.7223 0 20.3963 0 18.7607V18.258C0 16.9822 0.720817 15.8159 1.86193 15.2453L1.86655 15.243C2.37619 14.9882 2.7177 14.4878 2.76929 13.9204L3.35693 7.45634C3.7406 3.2359 7.27921 0.00439453 11.5171 0.00439453ZM9.87172 21.7223V22.38C9.87172 23.2887 10.6083 24.0253 11.517 24.0253C12.4257 24.0253 13.1623 23.2887 13.1623 22.38V21.7223H9.87172ZM11.517 1.97839C8.30033 1.97839 5.61438 4.43124 5.32316 7.63473L4.73552 14.0988C4.62203 15.3472 3.8707 16.448 2.74949 17.0086C2.27264 17.247 1.97434 17.7296 1.97434 18.2576V18.7604C1.97434 19.3056 2.41631 19.7476 2.96151 19.7476H20.0726C20.6178 19.7476 21.0597 19.3056 21.0597 18.7604V18.2576C21.0597 17.7296 20.7614 17.247 20.2892 17.0109C19.1634 16.448 18.4121 15.3472 18.2986 14.0988L17.7109 7.63473C17.4197 4.43124 14.7337 1.97839 11.517 1.97839Z" fill="#8692A6"/>
</svg>
