<svg width="32" height="33" viewBox="0 0 32 33" fill="none" xmlns="http://www.w3.org/2000/svg">
<path fill-rule="evenodd" clip-rule="evenodd" d="M16 0.375C7.16344 0.375 0 7.53844 0 16.375C0 25.2116 7.16344 32.375 16 32.375C24.8366 32.375 32 25.2116 32 16.375C32 7.53844 24.8366 0.375 16 0.375ZM12.4823 7.89335C13.3925 7.85193 13.6834 7.8418 16.0009 7.8418H15.9983C18.3165 7.8418 18.6063 7.85193 19.5165 7.89335C20.425 7.93495 21.0454 8.07878 21.5894 8.2898C22.1512 8.50758 22.6259 8.79914 23.1005 9.27381C23.5752 9.74813 23.8668 10.2242 24.0854 10.7855C24.2952 11.3281 24.4392 11.9482 24.4819 12.8566C24.5228 13.7668 24.5335 14.0577 24.5335 16.3752C24.5335 18.6928 24.5228 18.9829 24.4819 19.8931C24.4392 20.8012 24.2952 21.4215 24.0854 21.9643C23.8668 22.5253 23.5752 23.0014 23.1005 23.4757C22.6264 23.9504 22.151 24.2427 21.59 24.4606C21.047 24.6717 20.4262 24.8155 19.5178 24.8571C18.6075 24.8985 18.3176 24.9086 15.9999 24.9086C13.6825 24.9086 13.3918 24.8985 12.4816 24.8571C11.5733 24.8155 10.953 24.6717 10.4101 24.4606C9.84921 24.2427 9.37312 23.9504 8.89898 23.4757C8.42449 23.0014 8.13293 22.5253 7.91479 21.9641C7.70394 21.4215 7.56012 20.8014 7.51834 19.8929C7.4771 18.9827 7.46679 18.6928 7.46679 16.3752C7.46679 14.0577 7.47745 13.7667 7.51817 12.8564C7.55905 11.9483 7.70306 11.3281 7.91461 10.7853C8.13328 10.2242 8.42484 9.74813 8.89951 9.27381C9.37383 8.79932 9.84992 8.50776 10.4112 8.2898C10.9538 8.07878 11.5739 7.93495 12.4823 7.89335Z" fill="#646464"/>
<path fill-rule="evenodd" clip-rule="evenodd" d="M15.2355 9.37909C15.3841 9.37885 15.544 9.37893 15.7166 9.379L16.001 9.37909C18.2794 9.37909 18.5495 9.38726 19.4492 9.42815C20.2812 9.4662 20.7328 9.60522 21.0336 9.72202C21.4318 9.87669 21.7157 10.0616 22.0142 10.3603C22.3129 10.6589 22.4978 10.9434 22.6528 11.3416C22.7696 11.642 22.9088 12.0936 22.9467 12.9256C22.9876 13.8252 22.9964 14.0954 22.9964 16.3728C22.9964 18.6501 22.9876 18.9203 22.9467 19.8199C22.9086 20.6519 22.7696 21.1035 22.6528 21.4039C22.4981 21.8021 22.3129 22.0857 22.0142 22.3842C21.7155 22.6829 21.432 22.8678 21.0336 23.0224C20.7331 23.1398 20.2812 23.2784 19.4492 23.3165C18.5496 23.3574 18.2794 23.3663 16.001 23.3663C13.7224 23.3663 13.4524 23.3574 12.5528 23.3165C11.7208 23.2781 11.2692 23.1391 10.9682 23.0222C10.57 22.8676 10.2856 22.6827 9.98689 22.384C9.68822 22.0854 9.50333 21.8016 9.34831 21.4032C9.23151 21.1028 9.09231 20.6512 9.05444 19.8192C9.01355 18.9196 9.00537 18.6494 9.00537 16.3706C9.00537 14.0918 9.01355 13.823 9.05444 12.9235C9.09248 12.0915 9.23151 11.6399 9.34831 11.3391C9.50298 10.9409 9.68822 10.6564 9.98689 10.3578C10.2856 10.0591 10.57 9.8742 10.9682 9.71918C11.269 9.60184 11.7208 9.46318 12.5528 9.42495C13.34 9.3894 13.6451 9.37873 15.2355 9.37695V9.37909ZM20.5559 10.7959C19.9906 10.7959 19.5319 11.2541 19.5319 11.8196C19.5319 12.3849 19.9906 12.8436 20.5559 12.8436C21.1212 12.8436 21.5799 12.3849 21.5799 11.8196C21.5799 11.2542 21.1212 10.7956 20.5559 10.7956V10.7959ZM11.6188 16.3738C11.6188 13.9537 13.5809 11.9916 16.0009 11.9915C18.421 11.9915 20.3826 13.9537 20.3826 16.3738C20.3826 18.7939 18.4212 20.7552 16.0011 20.7552C13.581 20.7552 11.6188 18.7939 11.6188 16.3738Z" fill="#646464"/>
<path fill-rule="evenodd" clip-rule="evenodd" d="M16.0007 13.53C17.5716 13.53 18.8452 14.8034 18.8452 16.3744C18.8452 17.9453 17.5716 19.2189 16.0007 19.2189C14.4297 19.2189 13.1562 17.9453 13.1562 16.3744C13.1562 14.8034 14.4297 13.53 16.0007 13.53V13.53Z" fill="#646464"/>
</svg>
