<svg width="201" height="48" viewBox="0 0 201 48" fill="none" xmlns="http://www.w3.org/2000/svg">
<path d="M3.22677 34.375C3.01587 34.375 2.83661 34.3012 2.68898 34.1536C2.54135 34.0059 2.46753 33.8267 2.46753 33.6158V13.0214C2.46753 12.7894 2.5308 12.5996 2.65734 12.4519C2.80497 12.3043 2.99478 12.2305 3.22677 12.2305H6.10556C6.33755 12.2305 6.51681 12.3043 6.64335 12.4519C6.79098 12.5996 6.8648 12.7894 6.8648 13.0214V21.1832H16.1971V13.0214C16.1971 12.7894 16.2604 12.5996 16.3869 12.4519C16.5346 12.3043 16.7244 12.2305 16.9564 12.2305H19.8035C20.0355 12.2305 20.2253 12.3043 20.3729 12.4519C20.5206 12.5996 20.5944 12.7894 20.5944 13.0214V33.6158C20.5944 33.8477 20.5206 34.0376 20.3729 34.1852C20.2253 34.3117 20.0355 34.375 19.8035 34.375H16.9564C16.7455 34.375 16.5662 34.3012 16.4186 34.1536C16.2709 34.0059 16.1971 33.8267 16.1971 33.6158V25.1376H6.8648V33.6158C6.8648 33.8267 6.79098 34.0059 6.64335 34.1536C6.51681 34.3012 6.33755 34.375 6.10556 34.375H3.22677ZM27.2734 34.375C27.0625 34.375 26.8832 34.3012 26.7356 34.1536C26.5879 34.0059 26.5141 33.8267 26.5141 33.6158V13.0214C26.5141 12.7894 26.5774 12.5996 26.7039 12.4519C26.8516 12.3043 27.0414 12.2305 27.2734 12.2305H41.1928C41.4248 12.2305 41.6146 12.3043 41.7622 12.4519C41.9098 12.5996 41.9836 12.7894 41.9836 13.0214V15.1093C41.9836 15.3413 41.9098 15.5311 41.7622 15.6787C41.6146 15.8053 41.4248 15.8685 41.1928 15.8685H30.7848V21.4679H40.4968C40.7288 21.4679 40.9186 21.5417 41.0662 21.6894C41.2139 21.8159 41.2877 21.9952 41.2877 22.2272V24.1885C41.2877 24.4205 41.2139 24.6103 41.0662 24.758C40.9186 24.8845 40.7288 24.9478 40.4968 24.9478H30.7848V30.737H41.4458C41.6778 30.737 41.8676 30.8108 42.0153 30.9584C42.1629 31.106 42.2367 31.2959 42.2367 31.5278V33.6158C42.2367 33.8477 42.1629 34.0376 42.0153 34.1852C41.8676 34.3117 41.6778 34.375 41.4458 34.375H27.2734ZM45.833 34.375C45.6643 34.375 45.5061 34.3117 45.3585 34.1852C45.2319 34.0586 45.1687 33.9005 45.1687 33.7107L45.2319 33.4259L52.856 13.0214C53.0036 12.4941 53.3727 12.2305 53.9632 12.2305H57.4114C57.9598 12.2305 58.3288 12.4941 58.5186 13.0214L66.1427 33.4259C66.1638 33.4892 66.1743 33.5841 66.1743 33.7107C66.1743 33.9005 66.111 34.0586 65.9845 34.1852C65.858 34.3117 65.7103 34.375 65.5416 34.375H62.7894C62.5152 34.375 62.3043 34.3117 62.1567 34.1852C62.009 34.0586 61.9141 33.9216 61.872 33.7739L60.3851 29.9145H50.9895L49.5027 33.7739C49.334 34.1746 49.0281 34.375 48.5853 34.375H45.833ZM59.2779 26.2764L55.6715 16.5012L52.0967 26.2764H59.2779ZM70.887 34.375C70.6761 34.375 70.4968 34.3012 70.3492 34.1536C70.2016 34.0059 70.1277 33.8267 70.1277 33.6158V12.9897C70.1277 12.7577 70.2016 12.5785 70.3492 12.4519C70.4968 12.3043 70.6761 12.2305 70.887 12.2305H73.829C74.061 12.2305 74.2403 12.3043 74.3668 12.4519C74.5145 12.5785 74.5883 12.7577 74.5883 12.9897V30.6104H84.6166C84.8486 30.6104 85.0384 30.6842 85.186 30.8319C85.3336 30.9795 85.4074 31.1693 85.4074 31.4013V33.6158C85.4074 33.8477 85.3336 34.0376 85.186 34.1852C85.0384 34.3117 84.8486 34.375 84.6166 34.375H70.887ZM91.5259 34.375C91.315 34.375 91.1357 34.3012 90.9881 34.1536C90.8405 34.0059 90.7667 33.8267 90.7667 33.6158V16.1216H84.9142C84.7033 16.1216 84.524 16.0478 84.3764 15.9002C84.2288 15.7525 84.1549 15.5733 84.1549 15.3624V13.0214C84.1549 12.7894 84.2182 12.5996 84.3447 12.4519C84.4924 12.3043 84.6822 12.2305 84.9142 12.2305H101.048C101.28 12.2305 101.47 12.3043 101.617 12.4519C101.765 12.5996 101.839 12.7894 101.839 13.0214V15.3624C101.839 15.5733 101.765 15.7525 101.617 15.9002C101.47 16.0478 101.28 16.1216 101.048 16.1216H95.2272V33.6158C95.2272 33.8267 95.1534 34.0059 95.0057 34.1536C94.8581 34.3012 94.6683 34.375 94.4363 34.375H91.5259ZM114.189 34.6914C111.278 34.6914 109.022 33.9427 107.419 32.4453C105.837 30.9479 104.993 28.8389 104.888 26.1183C104.867 25.5488 104.856 24.6209 104.856 23.3344C104.856 22.0268 104.867 21.0778 104.888 20.4872C104.993 17.7877 105.848 15.6893 107.45 14.1919C109.074 12.6734 111.32 11.9141 114.189 11.9141C116.066 11.9141 117.7 12.241 119.092 12.8948C120.484 13.5275 121.56 14.4028 122.319 15.5205C123.078 16.6172 123.479 17.8615 123.521 19.2535V19.3167C123.521 19.4855 123.447 19.6331 123.3 19.7596C123.173 19.8651 123.025 19.9178 122.857 19.9178H119.851C119.598 19.9178 119.408 19.8651 119.282 19.7596C119.155 19.6542 119.05 19.4538 118.966 19.1586C118.628 17.8299 118.069 16.9019 117.289 16.3747C116.509 15.8263 115.465 15.5522 114.157 15.5522C111.12 15.5522 109.538 17.2499 109.412 20.6454C109.391 21.2148 109.38 22.0901 109.38 23.2711C109.38 24.4522 109.391 25.3485 109.412 25.9601C109.538 29.3556 111.12 31.0533 114.157 31.0533C115.465 31.0533 116.509 30.7792 117.289 30.2308C118.09 29.6825 118.649 28.7545 118.966 27.4469C119.029 27.1517 119.124 26.9513 119.25 26.8459C119.398 26.7404 119.598 26.6877 119.851 26.6877H122.857C123.046 26.6877 123.205 26.751 123.331 26.8775C123.479 27.004 123.542 27.1622 123.521 27.352C123.479 28.744 123.078 29.9988 122.319 31.1166C121.56 32.2133 120.484 33.0885 119.092 33.7423C117.7 34.375 116.066 34.6914 114.189 34.6914ZM126.665 34.375C126.497 34.375 126.338 34.3117 126.191 34.1852C126.064 34.0586 126.001 33.9005 126.001 33.7107L126.064 33.4259L133.688 13.0214C133.836 12.4941 134.205 12.2305 134.795 12.2305H138.244C138.792 12.2305 139.161 12.4941 139.351 13.0214L146.975 33.4259C146.996 33.4892 147.007 33.5841 147.007 33.7107C147.007 33.9005 146.943 34.0586 146.817 34.1852C146.69 34.3117 146.543 34.375 146.374 34.375H143.622C143.347 34.375 143.137 34.3117 142.989 34.1852C142.841 34.0586 142.746 33.9216 142.704 33.7739L141.217 29.9145H131.822L130.335 33.7739C130.166 34.1746 129.86 34.375 129.418 34.375H126.665ZM140.11 26.2764L136.504 16.5012L132.929 26.2764H140.11ZM151.719 34.375C151.508 34.375 151.329 34.3012 151.181 34.1536C151.034 34.0059 150.96 33.8267 150.96 33.6158V13.0214C150.96 12.7894 151.023 12.5996 151.15 12.4519C151.297 12.3043 151.487 12.2305 151.719 12.2305H159.913C162.486 12.2305 164.5 12.8316 165.955 14.0337C167.431 15.2358 168.169 16.9441 168.169 19.1586C168.169 20.6981 167.79 21.9952 167.031 23.0497C166.292 24.0831 165.259 24.8318 163.93 25.2958L168.549 33.3627C168.612 33.4892 168.644 33.6052 168.644 33.7107C168.644 33.9005 168.57 34.0586 168.423 34.1852C168.296 34.3117 168.148 34.375 167.98 34.375H165.101C164.763 34.375 164.5 34.3012 164.31 34.1536C164.141 34.0059 163.983 33.795 163.835 33.5209L159.755 26.0234H155.357V33.6158C155.357 33.8267 155.283 34.0059 155.136 34.1536C155.009 34.3012 154.83 34.375 154.598 34.375H151.719ZM159.818 22.4486C161.083 22.4486 162.032 22.1639 162.665 21.5945C163.319 21.025 163.646 20.2025 163.646 19.1269C163.646 18.0513 163.319 17.2183 162.665 16.6278C162.032 16.0372 161.083 15.742 159.818 15.742H155.357V22.4486H159.818ZM174.005 34.375C173.794 34.375 173.615 34.3012 173.467 34.1536C173.319 34.0059 173.246 33.8267 173.246 33.6158V13.0214C173.246 12.7894 173.309 12.5996 173.435 12.4519C173.583 12.3043 173.773 12.2305 174.005 12.2305H187.924C188.156 12.2305 188.346 12.3043 188.494 12.4519C188.641 12.5996 188.715 12.7894 188.715 13.0214V15.1093C188.715 15.3413 188.641 15.5311 188.494 15.6787C188.346 15.8053 188.156 15.8685 187.924 15.8685H177.516V21.4679H187.228C187.46 21.4679 187.65 21.5417 187.798 21.6894C187.945 21.8159 188.019 21.9952 188.019 22.2272V24.1885C188.019 24.4205 187.945 24.6103 187.798 24.758C187.65 24.8845 187.46 24.9478 187.228 24.9478H177.516V30.737H188.177C188.409 30.737 188.599 30.8108 188.747 30.9584C188.894 31.106 188.968 31.2959 188.968 31.5278V33.6158C188.968 33.8477 188.894 34.0376 188.747 34.1852C188.599 34.3117 188.409 34.375 188.177 34.375H174.005Z" fill="#40A3F8"/>
<rect x="194" y="29.375" width="7" height="7" rx="3.5" fill="#40A3F8"/>
</svg>
