<svg width="1400" height="247" viewBox="0 0 1400 247" fill="none" xmlns="http://www.w3.org/2000/svg">
<path opacity="0.1" d="M1322.89 60.3865C1302.38 80.7109 1290.78 108.36 1290.63 137.252C1290.48 166.144 1301.8 193.912 1322.1 214.446C1342.4 234.981 1370.02 246.601 1398.88 246.75L1400 28.8764C1371.14 28.7276 1343.4 40.0622 1322.89 60.3865Z" fill="white"/>
<path opacity="0.1" d="M34.3575 226.426C43.2591 217.421 48.2111 205.257 48.1239 192.61C48.0367 179.963 42.9175 167.868 33.8925 158.986C24.8676 150.105 12.676 145.164 0 145.251L0.657558 240.625C13.3336 240.538 25.4558 235.43 34.3575 226.426Z" fill="white"/>
<ellipse opacity="0.1" cx="211.312" cy="23.625" rx="23.1875" ry="22.75" fill="white"/>
</svg>
