<svg width="32" height="33" viewBox="0 0 32 33" fill="none" xmlns="http://www.w3.org/2000/svg">
<path fill-rule="evenodd" clip-rule="evenodd" d="M16 0.375C7.16344 0.375 0 7.53844 0 16.375C0 25.2116 7.16344 32.375 16 32.375C24.8366 32.375 32 25.2116 32 16.375C32 7.53844 24.8366 0.375 16 0.375ZM15.5544 13.9332L15.5208 13.3796C15.4201 11.9447 16.3042 10.634 17.7032 10.1256C18.218 9.94481 19.091 9.92221 19.6617 10.0804C19.8856 10.1482 20.3108 10.3742 20.613 10.5775L21.1614 10.9504L21.7658 10.7583C22.1015 10.6566 22.5492 10.4871 22.7506 10.3742C22.9409 10.2725 23.1088 10.216 23.1088 10.2499C23.1088 10.4419 22.6947 11.0973 22.3477 11.4588C21.8777 11.9673 22.012 12.0125 22.9633 11.6735C23.534 11.4814 23.5452 11.4814 23.4333 11.6961C23.3662 11.8091 23.0192 12.2045 22.6499 12.5661C22.0232 13.1875 21.9896 13.2553 21.9896 13.7751C21.9896 14.5773 21.6091 16.2495 21.2286 17.1647C20.5235 18.8821 19.0126 20.656 17.5017 21.5486C15.3753 22.8027 12.5438 23.1191 10.16 22.3847C9.36539 22.1361 8.00001 21.5034 8.00001 21.3904C8.00001 21.3565 8.4141 21.3113 8.91773 21.3C9.96974 21.2774 11.0218 20.9836 11.9171 20.4639L12.5214 20.1023L11.8276 19.8651C10.8427 19.5261 9.95855 18.7465 9.73472 18.0121C9.66757 17.7748 9.68995 17.7635 10.3167 17.7635L10.9658 17.7522L10.4174 17.4923C9.76829 17.1647 9.17514 16.611 8.88415 16.0461C8.67151 15.6393 8.40291 14.6112 8.48125 14.5321C8.50364 14.4982 8.73866 14.566 9.00726 14.6564C9.77949 14.9388 9.88021 14.871 9.43254 14.3965C8.59317 13.5378 8.33576 12.261 8.73866 11.0521L8.92892 10.5097L9.66757 11.2442C11.1784 12.7243 12.9579 13.6056 14.9948 13.8655L15.5544 13.9332Z" fill="#646464"/>
</svg>
