<svg width="32" height="33" viewBox="0 0 32 33" fill="none" xmlns="http://www.w3.org/2000/svg">
<path fill-rule="evenodd" clip-rule="evenodd" d="M16 0.375C7.16344 0.375 0 7.53844 0 16.375C0 25.2116 7.16344 32.375 16 32.375C24.8366 32.375 32 25.2116 32 16.375C32 7.53844 24.8366 0.375 16 0.375ZM22.6679 10.8753C23.4022 11.0768 23.9805 11.6706 24.1768 12.4246C24.5335 13.7911 24.5335 16.6424 24.5335 16.6424C24.5335 16.6424 24.5335 19.4937 24.1768 20.8603C23.9805 21.6143 23.4022 22.2081 22.6679 22.4097C21.3371 22.7758 16.0001 22.7758 16.0001 22.7758C16.0001 22.7758 10.6632 22.7758 9.3323 22.4097C8.59795 22.2081 8.01962 21.6143 7.82335 20.8603C7.4668 19.4937 7.4668 16.6424 7.4668 16.6424C7.4668 16.6424 7.4668 13.7911 7.82335 12.4246C8.01962 11.6706 8.59795 11.0768 9.3323 10.8753C10.6632 10.5091 16.0001 10.5091 16.0001 10.5091C16.0001 10.5091 21.3371 10.5091 22.6679 10.8753Z" fill="#646464"/>
<path fill-rule="evenodd" clip-rule="evenodd" d="M14.3999 19.5742V14.2409L18.6666 16.9077L14.3999 19.5742Z" fill="#646464"/>
</svg>
